<?xml version="1.0" encoding="UTF-8"?>
<!DOCTYPE svg PUBLIC "-//W3C//DTD SVG 1.1//EN" "http://www.w3.org/Graphics/SVG/1.1/DTD/svg11.dtd">
<svg version="1.2" width="215.9mm" height="279.4mm" viewBox="0 0 21590 27940" preserveAspectRatio="xMidYMid" fill-rule="evenodd" stroke-width="28.222" stroke-linejoin="round" xmlns="http://www.w3.org/2000/svg" xmlns:ooo="http://xml.openoffice.org/svg/export" xmlns:xlink="http://www.w3.org/1999/xlink" xmlns:presentation="http://sun.com/xmlns/staroffice/presentation" xmlns:smil="http://www.w3.org/2001/SMIL20/" xmlns:anim="urn:oasis:names:tc:opendocument:xmlns:animation:1.0" xml:space="preserve">
 <defs class="ClipPathGroup">
  <clipPath id="presentation_clip_path" clipPathUnits="userSpaceOnUse">
   <rect x="0" y="0" width="21590" height="27940"/>
  </clipPath>
  <clipPath id="presentation_clip_path_shrink" clipPathUnits="userSpaceOnUse">
   <rect x="21" y="27" width="21547" height="27885"/>
  </clipPath>
 </defs>
 <defs class="TextShapeIndex">
  <g ooo:slide="id1" ooo:id-list="id3"/>
 </defs>
 <defs class="EmbeddedBulletChars">
  <g id="bullet-char-template-57356" transform="scale(0.00048828125,-0.00048828125)">
   <path d="M 580,1141 L 1163,571 580,0 -4,571 580,1141 Z"/>
  </g>
  <g id="bullet-char-template-57354" transform="scale(0.00048828125,-0.00048828125)">
   <path d="M 8,1128 L 1137,1128 1137,0 8,0 8,1128 Z"/>
  </g>
  <g id="bullet-char-template-10146" transform="scale(0.00048828125,-0.00048828125)">
   <path d="M 174,0 L 602,739 174,1481 1456,739 174,0 Z M 1358,739 L 309,1346 659,739 1358,739 Z"/>
  </g>
  <g id="bullet-char-template-10132" transform="scale(0.00048828125,-0.00048828125)">
   <path d="M 2015,739 L 1276,0 717,0 1260,543 174,543 174,936 1260,936 717,1481 1274,1481 2015,739 Z"/>
  </g>
  <g id="bullet-char-template-10007" transform="scale(0.00048828125,-0.00048828125)">
   <path d="M 0,-2 C -7,14 -16,27 -25,37 L 356,567 C 262,823 215,952 215,954 215,979 228,992 255,992 264,992 276,990 289,987 310,991 331,999 354,1012 L 381,999 492,748 772,1049 836,1024 860,1049 C 881,1039 901,1025 922,1006 886,937 835,863 770,784 769,783 710,716 594,584 L 774,223 C 774,196 753,168 711,139 L 727,119 C 717,90 699,76 672,76 641,76 570,178 457,381 L 164,-76 C 142,-110 111,-127 72,-127 30,-127 9,-110 8,-76 1,-67 -2,-52 -2,-32 -2,-23 -1,-13 0,-2 Z"/>
  </g>
  <g id="bullet-char-template-10004" transform="scale(0.00048828125,-0.00048828125)">
   <path d="M 285,-33 C 182,-33 111,30 74,156 52,228 41,333 41,471 41,549 55,616 82,672 116,743 169,778 240,778 293,778 328,747 346,684 L 369,508 C 377,444 397,411 428,410 L 1163,1116 C 1174,1127 1196,1133 1229,1133 1271,1133 1292,1118 1292,1087 L 1292,965 C 1292,929 1282,901 1262,881 L 442,47 C 390,-6 338,-33 285,-33 Z"/>
  </g>
  <g id="bullet-char-template-9679" transform="scale(0.00048828125,-0.00048828125)">
   <path d="M 813,0 C 632,0 489,54 383,161 276,268 223,411 223,592 223,773 276,916 383,1023 489,1130 632,1184 813,1184 992,1184 1136,1130 1245,1023 1353,916 1407,772 1407,592 1407,412 1353,268 1245,161 1136,54 992,0 813,0 Z"/>
  </g>
  <g id="bullet-char-template-8226" transform="scale(0.00048828125,-0.00048828125)">
   <path d="M 346,457 C 273,457 209,483 155,535 101,586 74,649 74,723 74,796 101,859 155,911 209,963 273,989 346,989 419,989 480,963 531,910 582,859 608,796 608,723 608,648 583,586 532,535 482,483 420,457 346,457 Z"/>
  </g>
  <g id="bullet-char-template-8211" transform="scale(0.00048828125,-0.00048828125)">
   <path d="M -4,459 L 1135,459 1135,606 -4,606 -4,459 Z"/>
  </g>
  <g id="bullet-char-template-61548" transform="scale(0.00048828125,-0.00048828125)">
   <path d="M 173,740 C 173,903 231,1043 346,1159 462,1274 601,1332 765,1332 928,1332 1067,1274 1183,1159 1299,1043 1357,903 1357,740 1357,577 1299,437 1183,322 1067,206 928,148 765,148 601,148 462,206 346,322 231,437 173,577 173,740 Z"/>
  </g>
 </defs>
 <g>
  <g id="id2" class="Master_Slide">
   <g id="bg-id2" class="Background"/>
   <g id="bo-id2" class="BackgroundObjects"/>
  </g>
 </g>
 <g class="SlideGroup">
  <g>
   <g id="container-id1">
    <g id="id1" class="Slide" clip-path="url(#presentation_clip_path)">
     <g class="Page">
      <g class="Graphic">
       <g id="id3">
        <rect class="BoundingBox" stroke="none" fill="none" x="6715" y="9890" width="7937" height="7937"/>
        <defs>
         <clipPath id="clip_path_1" clipPathUnits="userSpaceOnUse">
          <path d="M 7408,10478 L 15346,10478 15346,18415 7408,18415 7408,10478 Z"/>
         </clipPath>
        </defs>
        <g clip-path="url(#clip_path_1)">
         <path fill="rgb(0,0,0)" stroke="rgb(0,0,0)" d="M 6741,9890 L 16212,9890 16239,9916 16239,19177 16212,19203 6741,19203 6715,19177 6715,9916 Z M 9583,10600 L 13345,10600 13897,10758 14187,10890 14371,10995 14555,11126 14871,11442 14949,11547 15107,11811 15239,12100 15397,12652 15397,16414 15318,16783 15213,17072 15107,17283 15055,17362 15002,17414 14949,17493 14949,17519 14871,17625 14555,17940 14213,18177 13871,18335 13608,18414 13345,18466 9583,18466 8714,18177 8372,17940 8057,17625 7873,17362 7688,16967 7531,16414 7531,12652 7662,12126 7820,11784 8057,11442 8372,11126 8478,11048 8504,11048 8583,10995 8636,10942 8714,10890 9056,10732 9425,10627 Z"/>
         <path fill="rgb(92,15,37)" stroke="rgb(92,15,37)" d="M 9583,10574 L 9635,10574 9662,10600 9635,10627 9583,10627 9556,10600 Z M 13292,10574 L 13345,10574 13371,10600 13345,10627 13292,10627 13266,10600 Z M 9425,10600 L 9451,10600 9477,10627 9451,10653 9425,10653 9398,10627 Z M 13476,10600 L 13503,10600 13529,10627 13503,10653 13476,10653 13450,10627 Z M 9320,10627 L 9346,10653 9320,10679 9293,10653 Z M 13608,10627 L 13634,10653 13608,10679 13581,10653 Z M 9214,10653 L 9241,10679 9214,10706 9188,10679 Z M 13713,10653 L 13739,10679 13713,10706 13687,10679 Z M 9135,10679 L 9162,10706 9135,10732 9109,10706 Z M 13792,10679 L 13818,10706 13792,10732 13766,10706 Z M 9056,10706 L 9083,10732 9056,10758 9030,10732 Z M 13871,10706 L 13897,10732 13871,10758 13845,10732 Z M 9004,10732 L 9030,10758 9004,10784 8978,10758 Z M 13923,10732 L 13950,10758 13923,10784 13897,10758 Z M 8925,10758 L 8951,10784 8925,10811 8899,10784 Z M 14002,10758 L 14029,10784 14002,10811 13976,10784 Z M 8872,10784 L 8899,10811 8872,10837 8846,10811 Z M 14055,10784 L 14081,10811 14055,10837 14029,10811 Z M 8820,10811 L 8846,10837 8820,10863 8793,10837 Z M 14108,10811 L 14134,10837 14108,10863 14081,10837 Z M 8767,10837 L 8793,10863 8767,10890 8741,10863 Z M 14160,10837 L 14187,10863 14160,10890 14134,10863 Z M 8714,10863 L 8741,10890 8714,10916 8688,10890 Z M 14213,10863 L 14239,10890 14213,10916 14187,10890 Z M 8636,10916 L 8662,10942 8636,10969 8609,10942 Z M 14292,10916 L 14318,10942 14292,10969 14265,10942 Z M 8557,10969 L 8583,10995 8557,11021 8530,10995 Z M 14371,10969 L 14397,10995 14371,11021 14344,10995 Z M 8478,11021 L 8504,11048 8478,11074 8451,11048 Z M 14450,11021 L 14476,11048 14450,11074 14423,11048 Z M 8372,11100 L 8399,11126 8320,11205 8293,11179 Z M 14555,11100 L 14634,11179 14607,11205 14529,11126 Z M 8109,11363 L 8136,11390 8057,11468 8030,11442 Z M 14818,11363 L 14897,11442 14871,11468 14792,11390 Z M 7978,11521 L 8004,11547 7978,11574 7951,11547 Z M 14949,11521 L 14976,11547 14949,11574 14923,11547 Z M 7925,11600 L 7951,11626 7925,11653 7899,11626 Z M 15002,11600 L 15028,11626 15002,11653 14976,11626 Z M 7873,11679 L 7899,11705 7873,11732 7846,11705 Z M 15055,11679 L 15081,11705 15055,11732 15028,11705 Z M 7820,11758 L 7846,11784 7820,11811 7794,11784 Z M 15107,11758 L 15134,11784 15107,11811 15081,11784 Z M 7794,11811 L 7820,11837 7794,11863 7767,11837 Z M 15134,11811 L 15160,11837 15134,11863 15107,11837 Z M 7767,11863 L 7794,11889 7767,11916 7741,11889 Z M 15160,11863 L 15186,11889 15160,11916 15134,11889 Z M 7741,11916 L 7767,11942 7741,11968 7715,11942 Z M 15186,11916 L 15213,11942 15186,11968 15160,11942 Z M 7715,11968 L 7741,11995 7715,12021 7688,11995 Z M 15213,11968 L 15239,11995 15213,12021 15186,11995 Z M 7688,12047 L 7715,12074 7688,12100 7662,12074 Z M 15239,12047 L 15265,12074 15239,12100 15213,12074 Z M 7662,12100 L 7688,12126 7662,12153 7636,12126 Z M 15265,12100 L 15291,12126 15265,12153 15239,12126 Z M 7636,12179 L 7662,12205 7636,12231 7609,12205 Z M 15291,12179 L 15318,12205 15291,12231 15265,12205 Z M 7609,12258 L 7636,12284 7609,12310 7583,12284 Z M 15318,12258 L 15344,12284 15318,12310 15291,12284 Z M 7583,12363 L 7609,12389 7583,12416 7557,12389 Z M 15344,12363 L 15370,12389 15344,12416 15318,12389 Z M 7557,12468 L 7583,12495 7583,12521 7557,12547 7531,12521 7531,12495 Z M 15370,12468 L 15397,12495 15397,12521 15370,12547 15344,12521 15344,12495 Z M 7531,12626 L 7557,12652 7557,12705 7531,12731 7504,12705 7504,12652 Z M 15397,12626 L 15423,12652 15423,12705 15397,12731 15370,12705 15370,12652 Z M 7531,16336 L 7557,16362 7557,16414 7531,16441 7504,16414 7504,16362 Z M 15397,16336 L 15423,16362 15423,16414 15397,16441 15370,16414 15370,16362 Z M 7557,16520 L 7583,16546 7583,16572 7557,16599 7531,16572 7531,16546 Z M 15370,16520 L 15397,16546 15397,16572 15370,16599 15344,16572 15344,16546 Z M 7583,16651 L 7609,16678 7583,16704 7557,16678 Z M 15344,16651 L 15370,16678 15344,16704 15318,16678 Z M 7609,16756 L 7636,16783 7609,16809 7583,16783 Z M 15318,16756 L 15344,16783 15318,16809 15291,16783 Z M 7636,16835 L 7662,16862 7636,16888 7609,16862 Z M 15291,16835 L 15318,16862 15291,16888 15265,16862 Z M 7662,16914 L 7688,16941 7662,16967 7636,16941 Z M 15265,16914 L 15291,16941 15265,16967 15239,16941 Z M 7688,16967 L 7715,16993 7688,17020 7662,16993 Z M 15239,16967 L 15265,16993 15239,17020 15213,16993 Z M 7715,17046 L 7741,17072 7715,17098 7688,17072 Z M 15213,17046 L 15239,17072 15213,17098 15186,17072 Z M 7741,17098 L 7767,17125 7741,17151 7715,17125 Z M 15186,17098 L 15213,17125 15186,17151 15160,17125 Z M 7767,17151 L 7794,17177 7767,17204 7741,17177 Z M 15160,17151 L 15186,17177 15160,17204 15134,17177 Z M 7794,17204 L 7820,17230 7794,17256 7767,17230 Z M 15134,17204 L 15160,17230 15134,17256 15107,17230 Z M 7820,17256 L 7846,17283 7820,17309 7794,17283 Z M 15107,17256 L 15134,17283 15107,17309 15081,17283 Z M 7873,17335 L 7899,17362 7873,17388 7846,17362 Z M 15055,17335 L 15081,17362 15055,17388 15028,17362 Z M 7925,17414 L 7951,17440 7925,17467 7899,17440 Z M 15002,17414 L 15028,17440 15002,17467 14976,17440 Z M 7978,17493 L 8004,17519 7978,17546 7951,17519 Z M 14949,17493 L 14976,17519 14949,17546 14923,17519 Z M 8057,17598 L 8136,17677 8109,17704 8030,17625 Z M 14871,17598 L 14897,17625 14818,17704 14792,17677 Z M 8320,17861 L 8399,17940 8372,17967 8293,17888 Z M 14607,17861 L 14634,17888 14555,17967 14529,17940 Z M 8478,17993 L 8504,18019 8478,18046 8451,18019 Z M 14450,17993 L 14476,18019 14450,18046 14423,18019 Z M 8557,18046 L 8583,18072 8557,18098 8530,18072 Z M 14371,18046 L 14397,18072 14371,18098 14344,18072 Z M 8636,18098 L 8662,18124 8636,18151 8609,18124 Z M 14292,18098 L 14318,18124 14292,18151 14265,18124 Z M 8714,18151 L 8741,18177 8714,18203 8688,18177 Z M 14213,18151 L 14239,18177 14213,18203 14187,18177 Z M 8767,18177 L 8793,18203 8767,18230 8741,18203 Z M 14160,18177 L 14187,18203 14160,18230 14134,18203 Z M 8820,18203 L 8846,18230 8820,18256 8793,18230 Z M 14108,18203 L 14134,18230 14108,18256 14081,18230 Z M 8872,18230 L 8899,18256 8872,18282 8846,18256 Z M 14055,18230 L 14081,18256 14055,18282 14029,18256 Z M 8925,18256 L 8951,18282 8925,18309 8899,18282 Z M 14002,18256 L 14029,18282 14002,18309 13976,18282 Z M 9004,18282 L 9030,18309 9004,18335 8978,18309 Z M 13923,18282 L 13950,18309 13923,18335 13897,18309 Z M 9056,18309 L 9083,18335 9056,18361 9030,18335 Z M 13871,18309 L 13897,18335 13871,18361 13845,18335 Z M 9135,18335 L 9162,18361 9135,18388 9109,18361 Z M 13792,18335 L 13818,18361 13792,18388 13766,18361 Z M 9214,18361 L 9241,18388 9214,18414 9188,18388 Z M 13713,18361 L 13739,18388 13713,18414 13687,18388 Z M 9320,18388 L 9346,18414 9320,18440 9293,18414 Z M 13608,18388 L 13634,18414 13608,18440 13581,18414 Z M 9425,18414 L 9451,18414 9477,18440 9451,18466 9425,18466 9398,18440 Z M 13476,18414 L 13503,18414 13529,18440 13503,18466 13476,18466 13450,18440 Z M 9583,18440 L 9635,18440 9662,18466 9635,18493 9583,18493 9556,18466 Z M 13292,18440 L 13345,18440 13371,18466 13345,18493 13292,18493 13266,18466 Z"/>
         <path fill="rgb(154,6,48)" stroke="rgb(154,6,48)" d="M 9662,10574 L 9793,10574 9819,10600 9793,10627 9662,10627 9635,10600 Z M 13134,10574 L 13266,10574 13292,10600 13266,10627 13134,10627 13108,10600 Z M 9477,10600 L 9504,10600 9530,10627 9504,10653 9477,10653 9451,10627 Z M 13424,10600 L 13450,10600 13476,10627 13450,10653 13424,10653 13397,10627 Z M 9346,10627 L 9372,10627 9398,10653 9372,10679 9346,10679 9320,10653 Z M 13555,10627 L 13581,10627 13608,10653 13581,10679 13555,10679 13529,10653 Z M 9241,10653 L 9267,10653 9293,10679 9267,10706 9241,10706 9214,10679 Z M 13660,10653 L 13687,10653 13713,10679 13687,10706 13660,10706 13634,10679 Z M 9162,10679 L 9188,10706 9162,10732 9135,10706 Z M 13766,10679 L 13792,10706 13766,10732 13739,10706 Z M 9083,10706 L 9109,10732 9083,10758 9056,10732 Z M 13845,10706 L 13871,10732 13845,10758 13818,10732 Z M 9030,10732 L 9056,10758 9030,10784 9004,10758 Z M 13897,10732 L 13923,10758 13897,10784 13871,10758 Z M 8951,10758 L 8978,10784 8951,10811 8925,10784 Z M 13976,10758 L 14002,10784 13976,10811 13950,10784 Z M 8899,10784 L 8925,10811 8899,10837 8872,10811 Z M 14029,10784 L 14055,10811 14029,10837 14002,10811 Z M 8846,10811 L 8872,10837 8846,10863 8820,10837 Z M 14081,10811 L 14108,10837 14081,10863 14055,10837 Z M 8793,10837 L 8820,10863 8793,10890 8767,10863 Z M 14134,10837 L 14160,10863 14134,10890 14108,10863 Z M 8741,10863 L 8767,10890 8741,10916 8714,10890 Z M 14187,10863 L 14213,10890 14187,10916 14160,10890 Z M 8688,10890 L 8714,10916 8688,10942 8662,10916 Z M 14239,10890 L 14265,10916 14239,10942 14213,10916 Z M 8609,10942 L 8636,10969 8609,10995 8583,10969 Z M 14318,10942 L 14344,10969 14318,10995 14292,10969 Z M 8530,10995 L 8557,11021 8530,11048 8504,11021 Z M 14397,10995 L 14423,11021 14397,11048 14371,11021 Z M 8451,11048 L 8478,11074 8399,11153 8372,11126 Z M 14476,11048 L 14555,11126 14529,11153 14450,11074 Z M 8293,11179 L 8320,11205 8136,11390 8109,11363 Z M 14634,11179 L 14818,11363 14792,11390 14607,11205 Z M 8057,11442 L 8083,11468 8004,11547 7978,11521 Z M 14871,11442 L 14949,11521 14923,11547 14844,11468 Z M 7951,11574 L 7978,11600 7951,11626 7925,11600 Z M 14976,11574 L 15002,11600 14976,11626 14949,11600 Z M 7899,11653 L 7925,11679 7899,11705 7873,11679 Z M 15028,11653 L 15055,11679 15028,11705 15002,11679 Z M 7846,11732 L 7873,11758 7846,11784 7820,11758 Z M 15081,11732 L 15107,11758 15081,11784 15055,11758 Z M 7820,11784 L 7846,11811 7820,11837 7794,11811 Z M 15107,11784 L 15134,11811 15107,11837 15081,11811 Z M 7794,11837 L 7820,11863 7794,11889 7767,11863 Z M 15134,11837 L 15160,11863 15134,11889 15107,11863 Z M 7767,11889 L 7794,11916 7767,11942 7741,11916 Z M 15160,11889 L 15186,11916 15160,11942 15134,11916 Z M 7741,11942 L 7767,11968 7741,11995 7715,11968 Z M 15186,11942 L 15213,11968 15186,11995 15160,11968 Z M 7715,11995 L 7741,12021 7715,12047 7688,12021 Z M 15213,11995 L 15239,12021 15213,12047 15186,12021 Z M 7688,12074 L 7715,12100 7688,12126 7662,12100 Z M 15239,12074 L 15265,12100 15239,12126 15213,12100 Z M 7662,12126 L 7688,12153 7662,12179 7636,12153 Z M 15265,12126 L 15291,12153 15265,12179 15239,12153 Z M 7636,12205 L 7662,12231 7636,12258 7609,12231 Z M 15291,12205 L 15318,12231 15291,12258 15265,12231 Z M 7609,12284 L 7636,12310 7636,12337 7609,12363 7583,12337 7583,12310 Z M 15318,12284 L 15344,12310 15344,12337 15318,12363 15291,12337 15291,12310 Z M 7583,12389 L 7609,12416 7609,12442 7583,12468 7557,12442 7557,12416 Z M 15344,12389 L 15370,12416 15370,12442 15344,12468 15318,12442 15318,12416 Z M 7557,12521 L 7583,12547 7583,12573 7557,12600 7531,12573 7531,12547 Z M 15370,12521 L 15397,12547 15397,12573 15370,12600 15344,12573 15344,12547 Z M 7531,12705 L 7557,12731 7557,12863 7531,12889 7504,12863 7504,12731 Z M 15397,12705 L 15423,12731 15423,12863 15397,12889 15370,12863 15370,12731 Z M 7531,16178 L 7557,16204 7557,16336 7531,16362 7504,16336 7504,16204 Z M 15397,16178 L 15423,16204 15423,16336 15397,16362 15370,16336 15370,16204 Z M 7557,16467 L 7583,16493 7583,16520 7557,16546 7531,16520 7531,16493 Z M 15370,16467 L 15397,16493 15397,16520 15370,16546 15344,16520 15344,16493 Z M 7583,16599 L 7609,16625 7609,16651 7583,16678 7557,16651 7557,16625 Z M 15344,16599 L 15370,16625 15370,16651 15344,16678 15318,16651 15318,16625 Z M 7609,16704 L 7636,16730 7636,16756 7609,16783 7583,16756 7583,16730 Z M 15318,16704 L 15344,16730 15344,16756 15318,16783 15291,16756 15291,16730 Z M 7636,16809 L 7662,16835 7636,16862 7609,16835 Z M 15291,16809 L 15318,16835 15291,16862 15265,16835 Z M 7662,16888 L 7688,16914 7662,16941 7636,16914 Z M 15265,16888 L 15291,16914 15265,16941 15239,16914 Z M 7688,16941 L 7715,16967 7688,16993 7662,16967 Z M 15239,16941 L 15265,16967 15239,16993 15213,16967 Z M 7715,17020 L 7741,17046 7715,17072 7688,17046 Z M 15213,17020 L 15239,17046 15213,17072 15186,17046 Z M 7741,17072 L 7767,17098 7741,17125 7715,17098 Z M 15186,17072 L 15213,17098 15186,17125 15160,17098 Z M 7767,17125 L 7794,17151 7767,17177 7741,17151 Z M 15160,17125 L 15186,17151 15160,17177 15134,17151 Z M 7794,17177 L 7820,17204 7794,17230 7767,17204 Z M 15134,17177 L 15160,17204 15134,17230 15107,17204 Z M 7820,17230 L 7846,17256 7820,17283 7794,17256 Z M 15107,17230 L 15134,17256 15107,17283 15081,17256 Z M 7846,17283 L 7873,17309 7846,17335 7820,17309 Z M 15081,17283 L 15107,17309 15081,17335 15055,17309 Z M 7899,17362 L 7925,17388 7899,17414 7873,17388 Z M 15028,17362 L 15055,17388 15028,17414 15002,17388 Z M 7951,17440 L 7978,17467 7951,17493 7925,17467 Z M 14976,17440 L 15002,17467 14976,17493 14949,17467 Z M 8004,17519 L 8083,17598 8057,17625 7978,17546 Z M 14923,17519 L 14949,17546 14871,17625 14844,17598 Z M 8136,17677 L 8320,17861 8293,17888 8109,17704 Z M 14792,17677 L 14818,17704 14634,17888 14607,17861 Z M 8399,17914 L 8478,17993 8451,18019 8372,17940 Z M 14529,17914 L 14555,17940 14476,18019 14450,17993 Z M 8530,18019 L 8557,18046 8530,18072 8504,18046 Z M 14397,18019 L 14423,18046 14397,18072 14371,18046 Z M 8609,18072 L 8636,18098 8609,18124 8583,18098 Z M 14318,18072 L 14344,18098 14318,18124 14292,18098 Z M 8688,18124 L 8714,18151 8688,18177 8662,18151 Z M 14239,18124 L 14265,18151 14239,18177 14213,18151 Z M 8741,18151 L 8767,18177 8741,18203 8714,18177 Z M 14187,18151 L 14213,18177 14187,18203 14160,18177 Z M 8793,18177 L 8820,18203 8793,18230 8767,18203 Z M 14134,18177 L 14160,18203 14134,18230 14108,18203 Z M 8846,18203 L 8872,18230 8846,18256 8820,18230 Z M 14081,18203 L 14108,18230 14081,18256 14055,18230 Z M 8899,18230 L 8925,18256 8899,18282 8872,18256 Z M 14029,18230 L 14055,18256 14029,18282 14002,18256 Z M 8951,18256 L 8978,18282 8951,18309 8925,18282 Z M 13976,18256 L 14002,18282 13976,18309 13950,18282 Z M 9030,18282 L 9056,18309 9030,18335 9004,18309 Z M 13897,18282 L 13923,18309 13897,18335 13871,18309 Z M 9083,18309 L 9109,18335 9083,18361 9056,18335 Z M 13845,18309 L 13871,18335 13845,18361 13818,18335 Z M 9162,18335 L 9188,18361 9162,18388 9135,18361 Z M 13766,18335 L 13792,18361 13766,18388 13739,18361 Z M 9241,18361 L 9267,18361 9293,18388 9267,18414 9241,18414 9214,18388 Z M 13660,18361 L 13687,18361 13713,18388 13687,18414 13660,18414 13634,18388 Z M 9346,18388 L 9372,18388 9398,18414 9372,18440 9346,18440 9320,18414 Z M 13555,18388 L 13581,18388 13608,18414 13581,18440 13555,18440 13529,18414 Z M 9477,18414 L 9504,18414 9530,18440 9504,18466 9477,18466 9451,18440 Z M 13424,18414 L 13450,18414 13476,18440 13450,18466 13424,18466 13397,18440 Z M 9662,18440 L 9793,18440 9819,18466 9793,18493 9662,18493 9635,18466 Z M 13134,18440 L 13266,18440 13292,18466 13266,18493 13134,18493 13108,18466 Z"/>
         <path fill="rgb(199,0,57)" stroke="rgb(199,0,57)" d="M 9819,10574 L 13108,10574 13397,10600 13845,10732 14344,10969 14555,11126 14871,11442 15081,11732 15265,12153 15397,12600 15423,12889 15423,16178 15397,16467 15291,16888 15081,17335 14871,17625 14555,17940 14265,18151 13818,18361 13397,18466 13108,18493 9819,18493 9083,18335 8688,18151 8372,17940 8057,17625 7951,17493 7662,16914 7504,16178 7504,12889 7531,12600 7636,12179 7846,11732 8057,11442 8372,11126 8662,10916 9109,10706 9530,10600 Z M 10267,12337 L 12661,12337 12740,12363 13108,12547 13292,12679 13318,12705 13581,13100 13660,13336 13660,15730 13634,15809 13476,16125 13318,16362 13292,16388 13082,16520 13055,16546 13055,16572 12897,16651 12661,16730 10267,16730 10188,16704 9819,16520 9635,16388 9609,16362 9477,16151 9451,16125 9425,16125 9346,15967 9267,15730 9267,13336 9293,13257 9451,12942 9609,12705 9635,12679 9846,12547 9872,12521 9872,12495 10030,12416 Z M 10556,12784 L 12371,12784 12398,12810 12450,12837 12740,12915 12871,12968 13029,13126 13161,13336 13161,13547 13187,13599 13213,13626 13213,15441 13161,15730 13029,15941 12871,16099 12661,16230 12371,16283 10556,16283 10530,16257 10477,16230 10267,16230 10056,16099 9898,15941 9767,15730 9767,15520 9740,15467 9714,15441 9714,13626 9767,13336 9898,13126 10056,12968 10267,12837 Z M 12608,13126 L 12634,13126 12713,13179 12819,13284 12871,13363 12871,13389 12845,13468 12740,13573 12529,13573 12424,13468 12424,13257 12529,13152 Z M 11108,13336 L 11819,13336 12003,13415 12003,13442 12029,13468 12108,13468 12266,13599 12398,13731 12529,13889 12661,14178 12661,14889 12582,15073 12555,15073 12529,15099 12529,15178 12398,15336 12266,15467 12108,15599 11819,15730 11108,15730 10924,15652 10924,15625 10898,15599 10819,15599 10661,15467 10530,15336 10398,15178 10267,14889 10267,14178 10346,13994 10372,13994 10398,13968 10398,13889 10530,13731 10661,13599 10951,13415 Z M 11424,13784 L 11503,13784 11871,13889 11898,13915 11898,13941 11924,13968 11950,13968 12029,14047 12029,14073 12056,14099 12082,14099 12108,14126 12161,14257 12161,14336 12187,14468 12213,14494 12213,14573 12161,14810 12108,14941 12082,14967 12056,14967 12029,14994 12029,15020 11950,15099 11924,15099 11898,15125 11898,15152 11871,15178 11740,15231 11503,15283 11424,15283 11266,15231 11056,15178 11030,15152 11030,15125 11003,15099 10977,15099 10898,15020 10898,14994 10872,14967 10845,14967 10819,14941 10766,14810 10766,14731 10740,14599 10714,14573 10714,14494 10766,14231 10819,14126 10845,14099 10872,14099 10898,14073 10898,14047 10977,13968 11003,13968 11030,13941 11030,13915 11056,13889 11161,13836 Z"/>
         <path fill="rgb(205,28,79)" stroke="rgb(205,28,79)" d="M 10267,12310 L 12661,12310 12740,12337 12792,12389 12766,12416 12713,12416 12687,12389 12634,12363 10293,12363 10267,12389 10214,12416 10161,12416 10135,12389 10188,12337 Z M 10030,12389 L 10109,12389 10135,12416 10109,12442 10030,12468 9872,12547 9767,12626 9556,12837 9425,13021 9372,13152 9372,13179 9346,13205 9320,13179 9320,13100 9398,12994 9583,12705 9635,12652 Z M 12819,12389 L 12897,12389 13055,12468 13292,12652 13345,12705 13345,12731 13608,13100 13608,13179 13581,13205 13555,13179 13503,13073 13503,13021 13371,12837 13161,12626 12976,12495 12924,12495 12819,12442 12792,12416 Z M 10477,12758 L 12450,12758 12477,12784 12555,12810 12634,12810 12661,12837 12634,12863 12450,12863 12398,12837 12371,12810 10556,12810 10503,12837 10477,12863 10293,12863 10267,12837 10293,12810 Z M 10214,12837 L 10240,12837 10267,12863 10188,12942 10030,13047 10004,13047 9872,13205 9872,13257 9793,13336 9767,13310 9767,13284 9819,13179 10109,12889 Z M 12687,12837 L 12713,12837 12819,12889 13108,13179 13161,13284 13161,13310 13134,13336 13055,13257 13055,13205 12924,13047 12792,12942 12740,12942 12661,12863 Z M 12608,13100 L 12634,13100 12713,13126 12792,13179 12819,13205 12871,13284 12897,13363 12897,13389 12871,13468 12819,13547 12792,13573 12740,13599 12529,13599 12398,13468 12398,13257 12424,13205 12450,13179 12529,13126 Z M 12608,13179 L 12661,13179 12740,13231 12766,13257 12819,13336 12819,13389 12792,13468 12713,13547 12555,13547 12450,13442 12450,13284 12529,13205 Z M 9320,13205 L 9346,13231 9346,13284 9320,13336 9293,13363 9293,15704 9320,15757 9346,15783 9346,15836 9320,15862 9267,15809 9241,15730 9241,13336 9267,13257 Z M 13608,13205 L 13660,13257 13687,13336 13687,15730 13660,15809 13345,16362 13292,16414 12740,16730 12661,16756 10267,16756 10188,16730 10135,16678 10161,16651 10214,16651 10267,16678 10293,16704 12634,16704 13055,16520 13161,16441 13371,16230 13450,16125 13555,15915 13634,15704 13634,13363 13608,13336 13581,13284 13581,13231 Z M 11108,13310 L 11293,13310 11319,13336 11293,13363 10924,13468 10766,13547 10477,13836 10398,14020 10293,14362 10267,14389 10240,14362 10240,14178 10372,13889 10451,13784 10714,13521 10819,13442 Z M 11635,13310 L 11819,13310 12108,13442 12213,13521 12477,13784 12555,13889 12687,14178 12687,14362 12661,14389 12634,14362 12634,14231 12450,13836 12161,13547 11924,13415 11766,13363 11635,13363 11608,13336 Z M 9767,13336 L 9793,13363 9793,13547 9767,13599 9740,13626 9740,15441 9767,15494 9793,15520 9793,15704 9767,15730 9740,15704 9688,15520 9688,13547 9714,13521 9740,13442 9740,13363 Z M 13161,13336 L 13187,13363 13187,13442 13213,13521 13239,13547 13239,15520 13187,15704 13161,15730 13134,15704 13134,15520 13161,15494 13187,15441 13187,13626 13161,13599 13134,13547 13134,13363 Z M 11319,13757 L 11608,13757 11635,13784 11687,13810 11845,13863 11977,13941 12056,14020 12135,14126 12187,14310 12213,14362 12240,14389 12240,14678 12187,14836 12135,14941 12056,15046 11977,15125 11871,15204 11766,15257 11608,15310 11319,15310 11293,15283 11240,15257 11056,15204 10951,15125 10872,15046 10793,14915 10740,14757 10714,14704 10688,14678 10688,14389 10740,14231 10793,14126 10872,14020 10951,13941 11056,13863 11161,13810 Z M 11424,13810 L 11503,13810 11871,13941 12056,14126 12135,14257 12187,14494 12187,14573 12056,14941 11871,15125 11740,15204 11503,15257 11424,15257 11056,15125 10872,14941 10793,14810 10740,14573 10740,14494 10819,14231 10872,14126 11056,13941 11135,13915 11161,13889 11161,13863 Z M 10267,14678 L 10293,14704 10398,15073 10477,15231 10766,15520 10951,15599 11293,15704 11319,15730 11293,15757 11108,15757 10819,15625 10714,15546 10451,15283 10372,15178 10240,14889 10240,14704 Z M 12661,14678 L 12687,14704 12687,14889 12634,14941 12608,15046 12608,15073 12555,15178 12477,15283 12213,15546 12108,15625 12003,15678 11977,15678 11871,15704 11819,15757 11635,15757 11608,15730 11635,15704 12003,15599 12161,15520 12450,15231 12529,15046 12634,14704 Z M 9793,15730 L 9872,15809 9977,15967 9977,15994 10135,16125 10188,16125 10267,16204 10240,16230 10214,16230 10109,16178 9819,15888 9767,15783 9767,15757 Z M 13134,15730 L 13161,15757 13161,15783 13108,15888 12819,16178 12713,16230 12687,16230 12661,16204 12740,16125 12897,16020 12924,16020 12950,15994 12950,15967 13055,15809 Z M 9346,15862 L 9372,15888 9398,15967 9477,16125 9556,16230 9767,16441 9951,16572 10082,16625 10109,16625 10135,16651 10109,16678 10030,16678 9925,16599 9635,16414 9583,16362 9320,15967 9320,15888 Z M 10293,16204 L 10477,16204 10503,16230 10556,16257 12371,16257 12398,16230 12450,16204 12634,16204 12661,16230 12634,16257 12555,16257 12477,16283 12450,16309 10477,16309 10293,16257 10267,16230 Z"/>
         <path fill="rgb(215,76,116)" stroke="rgb(215,76,116)" d="M 10293,12337 L 10346,12337 10372,12363 10346,12389 10293,12389 10267,12363 Z M 12582,12337 L 12634,12337 12661,12363 12634,12389 12582,12389 12555,12363 Z M 10240,12363 L 10267,12389 10240,12416 10214,12389 Z M 12687,12363 L 12713,12389 12687,12416 12661,12389 Z M 10135,12389 L 10161,12389 10188,12416 10161,12442 10135,12442 10109,12416 Z M 12766,12389 L 12792,12389 12819,12416 12792,12442 12766,12442 12740,12416 Z M 10082,12416 L 10109,12442 10082,12468 10056,12442 Z M 12845,12416 L 12871,12442 12845,12468 12819,12442 Z M 10030,12442 L 10056,12468 10030,12495 10004,12468 Z M 12897,12442 L 12924,12468 12897,12495 12871,12468 Z M 9951,12468 L 9977,12495 9925,12547 9898,12521 Z M 12976,12468 L 13029,12521 13003,12547 12950,12495 Z M 9872,12521 L 9898,12547 9872,12573 9846,12547 Z M 13055,12521 L 13082,12547 13055,12573 13029,12547 Z M 9767,12600 L 9793,12626 9714,12705 9688,12679 Z M 13161,12600 L 13239,12679 13213,12705 13134,12626 Z M 9662,12705 L 9688,12731 9662,12758 9635,12731 Z M 13266,12705 L 13292,12731 13266,12758 13239,12731 Z M 9609,12758 L 9635,12784 9556,12863 9530,12837 Z M 10424,12758 L 10451,12758 10477,12784 10451,12810 10424,12810 10398,12784 Z M 12477,12758 L 12503,12758 12529,12784 12503,12810 12477,12810 12450,12784 Z M 13318,12758 L 13397,12837 13371,12863 13292,12784 Z M 10346,12784 L 10372,12784 10398,12810 10372,12837 10346,12837 10319,12810 Z M 12555,12784 L 12582,12784 12608,12810 12582,12837 12555,12837 12529,12810 Z M 10240,12810 L 10267,12810 10293,12837 10267,12863 10240,12863 10214,12837 Z M 12661,12810 L 12687,12810 12713,12837 12687,12863 12661,12863 12634,12837 Z M 10188,12837 L 10214,12863 10161,12915 10135,12889 Z M 12740,12837 L 12792,12889 12766,12915 12713,12863 Z M 9477,12915 L 9504,12942 9477,12968 9451,12942 Z M 13450,12915 L 13476,12942 13450,12968 13424,12942 Z M 10030,12942 L 10056,12968 9898,13126 9872,13100 Z M 12897,12942 L 13055,13100 13029,13126 12871,12968 Z M 9451,12968 L 9477,12994 9425,13047 9398,13021 Z M 13476,12968 L 13529,13021 13503,13047 13450,12994 Z M 9398,13073 L 9425,13100 9398,13126 9372,13100 Z M 13529,13073 L 13555,13100 13529,13126 13503,13100 Z M 9372,13126 L 9398,13152 9372,13179 9346,13152 Z M 13555,13126 L 13581,13152 13555,13179 13529,13152 Z M 12608,13152 L 12661,13152 12687,13179 12661,13205 12608,13205 12582,13179 Z M 9346,13179 L 9372,13205 9372,13231 9346,13257 9320,13231 9320,13205 Z M 12529,13179 L 12555,13205 12529,13231 12503,13205 Z M 12713,13179 L 12740,13205 12713,13231 12687,13205 Z M 13581,13179 L 13608,13205 13608,13231 13581,13257 13555,13231 13555,13205 Z M 9819,13205 L 9846,13231 9793,13284 9767,13257 Z M 12766,13205 L 12792,13231 12766,13257 12740,13231 Z M 13108,13205 L 13161,13257 13134,13284 13082,13231 Z M 12477,13231 L 12503,13257 12450,13310 12424,13284 Z M 12792,13257 L 12819,13284 12792,13310 12766,13284 Z M 9320,13284 L 9346,13310 9320,13336 9293,13310 Z M 9767,13284 L 9793,13310 9793,13336 9767,13363 9740,13336 9740,13310 Z M 13161,13284 L 13187,13310 13187,13336 13161,13363 13134,13336 13134,13310 Z M 13608,13284 L 13634,13310 13608,13336 13581,13310 Z M 11319,13310 L 11608,13310 11635,13336 11608,13363 11319,13363 11293,13336 Z M 12819,13310 L 12845,13336 12845,13389 12819,13415 12792,13389 12792,13336 Z M 9293,13336 L 9320,13363 9320,13415 9293,13442 9267,13415 9267,13363 Z M 11161,13336 L 11187,13336 11214,13363 11187,13389 11135,13415 11108,13389 Z M 11740,13336 L 11766,13336 11819,13389 11792,13415 11740,13389 11714,13363 Z M 13634,13336 L 13660,13363 13660,13415 13634,13442 13608,13415 13608,13363 Z M 9740,13389 L 9767,13415 9767,13442 9740,13468 9714,13442 9714,13415 Z M 11003,13389 L 11030,13415 10977,13468 10951,13442 Z M 11924,13389 L 11977,13442 11950,13468 11898,13415 Z M 13187,13389 L 13213,13415 13213,13442 13187,13468 13161,13442 13161,13415 Z M 12450,13415 L 12477,13442 12450,13468 12424,13442 Z M 10924,13442 L 10951,13468 10924,13494 10898,13468 Z M 12003,13442 L 12029,13468 12003,13494 11977,13468 Z M 12792,13442 L 12819,13468 12713,13573 12687,13547 Z M 9714,13468 L 9740,13494 9740,13521 9714,13547 9688,13521 9688,13494 Z M 13213,13468 L 13239,13494 13239,13521 13213,13547 13187,13521 13187,13494 Z M 10819,13494 L 10845,13521 10819,13547 10793,13521 Z M 10766,13521 L 10793,13547 10714,13626 10688,13599 Z M 12161,13521 L 12240,13599 12213,13626 12135,13547 Z M 12555,13521 L 12582,13547 12555,13573 12529,13547 Z M 10661,13626 L 10688,13652 10661,13678 10635,13652 Z M 12266,13626 L 12292,13652 12266,13678 12240,13652 Z M 10582,13705 L 10609,13731 10582,13757 10556,13731 Z M 12345,13705 L 12371,13731 12345,13757 12319,13731 Z M 11424,13731 L 11503,13731 11529,13757 11503,13784 11424,13784 11398,13757 Z M 10530,13757 L 10556,13784 10477,13863 10451,13836 Z M 11293,13757 L 11319,13784 11293,13810 11266,13784 Z M 11635,13757 L 11661,13784 11635,13810 11608,13784 Z M 12398,13757 L 12477,13836 12450,13863 12371,13784 Z M 11214,13784 L 11240,13784 11266,13810 11240,13836 11214,13836 11187,13810 Z M 11687,13784 L 11714,13784 11740,13810 11714,13836 11687,13836 11661,13810 Z M 11135,13810 L 11161,13836 11135,13863 11108,13836 Z M 11792,13810 L 11819,13836 11792,13863 11766,13836 Z M 10451,13863 L 10477,13889 10451,13915 10424,13889 Z M 11030,13863 L 11056,13889 10977,13968 10951,13941 Z M 11898,13863 L 11977,13941 11950,13968 11871,13889 Z M 10398,13968 L 10424,13994 10398,14020 10372,13994 Z M 10924,13968 L 10951,13994 10924,14020 10898,13994 Z M 12003,13968 L 12029,13994 12003,14020 11977,13994 Z M 12529,13968 L 12555,13994 12529,14020 12503,13994 Z M 10372,14020 L 10398,14047 10346,14099 10319,14073 Z M 10872,14020 L 10898,14047 10819,14126 10793,14099 Z M 12056,14020 L 12135,14099 12108,14126 12029,14047 Z M 12555,14020 L 12608,14073 12582,14099 12529,14047 Z M 10319,14178 L 10346,14205 10319,14257 10293,14283 10267,14257 10267,14231 Z M 10766,14178 L 10793,14205 10766,14231 10740,14205 Z M 12161,14178 L 12187,14205 12161,14231 12135,14205 Z M 12608,14178 L 12661,14231 12661,14257 12634,14283 12608,14257 12582,14205 Z M 10740,14257 L 10766,14283 10766,14310 10740,14336 10714,14310 10714,14283 Z M 12187,14257 L 12213,14283 12213,14310 12187,14336 12161,14310 12161,14283 Z M 10714,14336 L 10740,14362 10714,14389 10688,14362 Z M 12213,14336 L 12240,14362 12213,14389 12187,14362 Z M 10267,14362 L 10293,14389 10293,14678 10267,14704 10240,14678 10240,14389 Z M 12661,14362 L 12687,14389 12687,14678 12661,14704 12634,14678 12634,14389 Z M 10688,14468 L 10714,14494 10714,14573 10688,14599 10661,14573 10661,14494 Z M 12240,14468 L 12266,14494 12266,14573 12240,14599 12213,14573 12213,14494 Z M 10714,14678 L 10740,14704 10714,14731 10688,14704 Z M 12213,14678 L 12240,14704 12213,14731 12187,14704 Z M 10740,14731 L 10766,14757 10766,14783 10740,14810 10714,14783 10714,14757 Z M 12187,14731 L 12213,14757 12213,14783 12187,14810 12161,14783 12161,14757 Z M 10293,14783 L 10319,14810 10346,14862 10319,14889 10267,14836 10267,14810 Z M 12634,14783 L 12661,14810 12661,14836 12608,14889 12582,14862 12608,14810 Z M 10766,14836 L 10793,14862 10766,14889 10740,14862 Z M 12161,14836 L 12187,14862 12161,14889 12135,14862 Z M 10819,14941 L 10898,15020 10872,15046 10793,14967 Z M 12108,14941 L 12135,14967 12056,15046 12029,15020 Z M 12582,14941 L 12608,14967 12608,14994 12555,15046 12529,15020 12555,14967 Z M 10346,14967 L 10398,15020 10372,15046 10319,14994 Z M 10398,15046 L 10424,15073 10398,15099 10372,15073 Z M 10924,15046 L 10951,15073 10924,15099 10898,15073 Z M 12003,15046 L 12029,15073 12003,15099 11977,15073 Z M 12529,15046 L 12555,15073 12529,15099 12503,15073 Z M 10977,15099 L 11056,15178 11030,15204 10951,15125 Z M 11950,15099 L 11977,15125 11898,15204 11871,15178 Z M 10477,15204 L 10556,15283 10530,15310 10451,15231 Z M 11135,15204 L 11161,15231 11135,15257 11108,15231 Z M 11792,15204 L 11819,15231 11792,15257 11766,15231 Z M 12450,15204 L 12477,15231 12398,15310 12371,15283 Z M 11214,15231 L 11240,15231 11266,15257 11240,15283 11214,15283 11187,15257 Z M 11687,15231 L 11714,15231 11740,15257 11714,15283 11687,15283 11661,15257 Z M 11293,15257 L 11319,15283 11293,15310 11266,15283 Z M 11635,15257 L 11661,15283 11635,15310 11608,15283 Z M 11424,15283 L 11503,15283 11529,15310 11503,15336 11424,15336 11398,15310 Z M 10582,15310 L 10609,15336 10582,15362 10556,15336 Z M 12345,15310 L 12371,15336 12345,15362 12319,15336 Z M 10661,15388 L 10688,15415 10661,15441 10635,15415 Z M 12266,15388 L 12292,15415 12266,15441 12240,15415 Z M 10714,15441 L 10793,15520 10766,15546 10688,15467 Z M 12213,15441 L 12240,15467 12161,15546 12135,15520 Z M 9714,15520 L 9740,15546 9740,15573 9714,15599 9688,15573 9688,15546 Z M 13213,15520 L 13239,15546 13239,15573 13213,15599 13187,15573 13187,15546 Z M 10924,15573 L 10951,15599 10924,15625 10898,15599 Z M 12003,15573 L 12029,15599 12003,15625 11977,15599 Z M 9740,15599 L 9767,15625 9767,15652 9740,15678 9714,15652 9714,15625 Z M 10977,15599 L 11030,15652 11003,15678 10951,15625 Z M 11950,15599 L 11977,15625 11924,15678 11898,15678 11871,15652 11898,15625 Z M 13187,15599 L 13213,15625 13213,15652 13187,15678 13161,15652 13161,15625 Z M 9293,15625 L 9320,15652 9320,15704 9293,15730 9267,15704 9267,15652 Z M 13634,15625 L 13660,15652 13660,15704 13634,15730 13608,15704 13608,15652 Z M 11135,15652 L 11187,15678 11214,15704 11187,15730 11161,15730 11108,15678 Z M 11792,15652 L 11819,15678 11766,15730 11740,15730 11714,15704 11740,15678 Z M 9767,15704 L 9793,15730 9793,15757 9767,15783 9740,15757 9740,15730 Z M 11319,15704 L 11608,15704 11635,15730 11608,15757 11319,15757 11293,15730 Z M 13161,15704 L 13187,15730 13187,15757 13161,15783 13134,15757 13134,15730 Z M 9320,15730 L 9346,15757 9320,15783 9293,15757 Z M 13608,15730 L 13634,15757 13608,15783 13581,15757 Z M 9793,15783 L 9846,15836 9819,15862 9767,15809 Z M 13134,15783 L 13161,15809 13108,15862 13082,15836 Z M 9346,15809 L 9372,15836 9372,15862 9346,15888 9320,15862 9320,15836 Z M 13581,15809 L 13608,15836 13581,15862 13555,15836 Z M 9372,15888 L 9398,15915 9372,15941 9346,15915 Z M 13555,15888 L 13581,15915 13555,15941 13529,15915 Z M 9398,15941 L 9425,15967 9398,15994 9372,15967 Z M 9898,15941 L 10056,16099 10030,16125 9872,15967 Z M 13029,15941 L 13055,15967 12897,16125 12871,16099 Z M 13529,15941 L 13555,15967 13529,15994 13503,15967 Z M 9425,16020 L 9477,16072 9451,16099 9398,16046 Z M 13503,16020 L 13529,16046 13476,16099 13450,16072 Z M 9477,16099 L 9504,16125 9477,16151 9451,16125 Z M 13450,16099 L 13476,16125 13450,16151 13424,16125 Z M 10161,16151 L 10214,16204 10188,16230 10135,16178 Z M 12766,16151 L 12792,16178 12740,16230 12713,16204 Z M 9556,16204 L 9635,16283 9609,16309 9530,16230 Z M 10240,16204 L 10267,16204 10293,16230 10267,16257 10240,16257 10214,16230 Z M 12661,16204 L 12687,16204 12713,16230 12687,16257 12661,16257 12634,16230 Z M 13371,16204 L 13397,16230 13318,16309 13292,16283 Z M 10346,16230 L 10372,16230 10398,16257 10372,16283 10346,16283 10319,16257 Z M 12555,16230 L 12582,16230 12608,16257 12582,16283 12555,16283 12529,16257 Z M 10424,16257 L 10451,16257 10477,16283 10451,16309 10424,16309 10398,16283 Z M 12477,16257 L 12503,16257 12529,16283 12503,16309 12477,16309 12450,16283 Z M 9662,16309 L 9688,16336 9662,16362 9635,16336 Z M 13266,16309 L 13292,16336 13266,16362 13239,16336 Z M 9714,16362 L 9793,16441 9767,16467 9688,16388 Z M 13213,16362 L 13239,16388 13161,16467 13134,16441 Z M 9872,16493 L 9898,16520 9872,16546 9846,16520 Z M 13055,16493 L 13082,16520 13055,16546 13029,16520 Z M 9925,16520 L 9977,16572 9951,16599 9898,16546 Z M 12976,16546 L 13003,16572 12976,16599 12950,16572 Z M 10030,16572 L 10056,16599 10030,16625 10004,16599 Z M 12897,16572 L 12924,16599 12897,16625 12871,16599 Z M 10082,16599 L 10109,16625 10082,16651 10056,16625 Z M 12845,16599 L 12871,16625 12845,16651 12819,16625 Z M 10135,16625 L 10161,16625 10188,16651 10161,16678 10135,16678 10109,16651 Z M 12766,16625 L 12792,16651 12766,16678 12740,16651 Z M 10240,16651 L 10267,16678 10240,16704 10214,16678 Z M 12687,16651 L 12713,16678 12687,16704 12661,16678 Z M 10293,16678 L 10346,16678 10372,16704 10346,16730 10293,16730 10267,16704 Z M 12582,16678 L 12634,16678 12661,16704 12634,16730 12582,16730 12555,16704 Z"/>
         <path fill="rgb(222,108,141)" stroke="rgb(222,108,141)" d="M 10372,12337 L 10556,12337 10582,12363 10556,12389 10372,12389 10346,12363 Z M 12371,12337 L 12555,12337 12582,12363 12555,12389 12371,12389 12345,12363 Z M 10267,12363 L 10293,12363 10319,12389 10293,12416 10267,12416 10240,12389 Z M 12634,12363 L 12661,12363 12687,12389 12661,12416 12634,12416 12608,12389 Z M 10188,12389 L 10214,12389 10240,12416 10214,12442 10188,12442 10161,12416 Z M 12713,12389 L 12740,12389 12766,12416 12740,12442 12713,12442 12687,12416 Z M 10109,12416 L 10135,12442 10109,12468 10082,12442 Z M 12819,12416 L 12845,12442 12819,12468 12792,12442 Z M 10056,12442 L 10082,12468 10056,12495 10030,12468 Z M 12871,12442 L 12897,12468 12871,12495 12845,12468 Z M 9977,12468 L 10004,12468 10030,12495 10004,12521 9951,12547 9925,12521 Z M 12924,12468 L 12950,12468 13003,12521 12976,12547 12924,12521 12897,12495 Z M 9898,12521 L 9925,12547 9898,12573 9872,12547 Z M 13029,12521 L 13055,12547 13029,12573 13003,12547 Z M 9846,12547 L 9872,12573 9793,12652 9767,12626 Z M 13082,12547 L 13161,12626 13134,12652 13055,12573 Z M 9688,12679 L 9714,12705 9688,12731 9662,12705 Z M 13239,12679 L 13266,12705 13239,12731 13213,12705 Z M 9635,12731 L 9662,12758 9635,12784 9609,12758 Z M 13292,12731 L 13318,12758 13292,12784 13266,12758 Z M 10372,12758 L 10398,12758 10424,12784 10398,12810 10372,12810 10346,12784 Z M 12529,12758 L 12555,12758 12582,12784 12555,12810 12529,12810 12503,12784 Z M 10319,12784 L 10346,12810 10319,12837 10293,12810 Z M 12608,12784 L 12634,12810 12608,12837 12582,12810 Z M 10214,12810 L 10240,12837 10214,12863 10188,12837 Z M 12713,12810 L 12740,12837 12713,12863 12687,12837 Z M 9556,12837 L 9583,12863 9504,12942 9477,12915 Z M 13371,12837 L 13450,12915 13424,12942 13345,12863 Z M 10135,12863 L 10161,12889 10135,12915 10109,12889 Z M 12792,12863 L 12819,12889 12792,12915 12766,12889 Z M 10082,12889 L 10109,12915 10056,12968 10030,12942 Z M 12845,12889 L 12897,12942 12871,12968 12819,12915 Z M 9477,12942 L 9504,12968 9477,12994 9451,12968 Z M 10004,12942 L 10030,12968 9898,13100 9872,13073 Z M 12924,12942 L 13055,13073 13029,13100 12897,12968 Z M 13450,12942 L 13476,12968 13450,12994 13424,12968 Z M 9451,12994 L 9477,13021 9451,13073 9425,13100 9398,13073 9398,13047 Z M 13476,12994 L 13529,13047 13529,13073 13503,13100 13476,13073 13450,13021 Z M 9398,13100 L 9425,13126 9398,13152 9372,13126 Z M 9872,13100 L 9898,13126 9846,13179 9819,13152 Z M 13055,13100 L 13108,13152 13082,13179 13029,13126 Z M 13529,13100 L 13555,13126 13529,13152 13503,13126 Z M 9372,13152 L 9398,13179 9372,13205 9346,13179 Z M 13555,13152 L 13581,13179 13555,13205 13529,13179 Z M 9819,13179 L 9846,13205 9819,13231 9793,13205 Z M 12555,13179 L 12582,13179 12608,13205 12582,13231 12555,13231 12529,13205 Z M 12687,13179 L 12713,13205 12687,13231 12661,13205 Z M 13108,13179 L 13134,13205 13108,13231 13082,13205 Z M 12503,13205 L 12529,13231 12503,13257 12477,13231 Z M 9346,13231 L 9372,13257 9372,13284 9346,13310 9320,13284 9320,13257 Z M 13581,13231 L 13608,13257 13608,13284 13581,13310 13555,13284 13555,13257 Z M 9767,13257 L 9793,13284 9767,13310 9740,13284 Z M 13161,13257 L 13187,13284 13161,13310 13134,13284 Z M 12450,13284 L 12477,13310 12477,13415 12450,13442 12424,13415 12424,13310 Z M 12792,13284 L 12819,13310 12792,13336 12766,13310 Z M 9320,13310 L 9346,13336 9346,13363 9320,13389 9293,13363 9293,13336 Z M 13608,13310 L 13634,13336 13634,13363 13608,13389 13581,13363 13581,13336 Z M 11214,13336 L 11240,13336 11266,13363 11240,13389 11214,13389 11187,13363 Z M 11687,13336 L 11714,13336 11740,13363 11714,13389 11687,13389 11661,13363 Z M 9740,13363 L 9767,13389 9740,13415 9714,13389 Z M 11161,13363 L 11187,13389 11161,13415 11135,13389 Z M 11766,13363 L 11792,13389 11766,13415 11740,13389 Z M 13187,13363 L 13213,13389 13187,13415 13161,13389 Z M 11030,13389 L 11056,13389 11082,13415 11056,13442 11003,13468 10977,13442 Z M 11871,13389 L 11898,13389 11950,13442 11924,13468 11871,13442 11845,13415 Z M 12792,13389 L 12819,13415 12819,13442 12792,13468 12766,13442 12766,13415 Z M 9293,13415 L 9320,13442 9320,13705 9293,13731 9267,13705 9267,13442 Z M 9714,13415 L 9740,13442 9740,13468 9714,13494 9688,13468 9688,13442 Z M 13213,13415 L 13239,13442 13239,13468 13213,13494 13187,13468 13187,13442 Z M 13634,13415 L 13660,13442 13660,13705 13634,13731 13608,13705 13608,13442 Z M 10951,13442 L 10977,13468 10951,13494 10924,13468 Z M 11977,13442 L 12003,13468 11977,13494 11950,13468 Z M 12477,13442 L 12555,13521 12529,13547 12450,13468 Z M 10872,13468 L 10898,13494 10845,13547 10819,13521 Z M 12056,13468 L 12108,13521 12082,13547 12029,13494 Z M 10793,13521 L 10819,13547 10740,13626 10714,13599 Z M 12135,13521 L 12213,13599 12187,13626 12108,13547 Z M 12582,13521 L 12687,13521 12713,13547 12687,13573 12582,13573 12555,13547 Z M 10688,13599 L 10714,13626 10688,13652 10661,13626 Z M 12240,13599 L 12266,13626 12240,13652 12213,13626 Z M 10635,13652 L 10661,13678 10609,13731 10582,13705 Z M 12292,13652 L 12345,13705 12319,13731 12266,13678 Z M 10556,13731 L 10582,13757 10556,13784 10530,13757 Z M 11319,13731 L 11398,13731 11424,13757 11398,13784 11319,13784 11293,13757 Z M 11529,13731 L 11608,13731 11635,13757 11608,13784 11529,13784 11503,13757 Z M 12371,13731 L 12398,13757 12371,13784 12345,13757 Z M 11240,13757 L 11266,13757 11293,13784 11266,13810 11240,13810 11214,13784 Z M 11661,13757 L 11687,13757 11714,13784 11687,13810 11661,13810 11635,13784 Z M 10530,13784 L 10556,13810 10477,13889 10451,13863 Z M 11161,13784 L 11187,13784 11214,13810 11187,13836 11161,13836 11135,13810 Z M 11740,13784 L 11766,13784 11792,13810 11766,13836 11740,13836 11714,13810 Z M 12398,13784 L 12477,13863 12450,13889 12371,13810 Z M 11108,13810 L 11135,13836 11082,13889 11056,13863 Z M 11819,13810 L 11871,13863 11845,13889 11792,13836 Z M 10451,13889 L 10477,13915 10424,13968 10398,13941 Z M 12477,13889 L 12529,13941 12503,13968 12450,13915 Z M 10951,13915 L 10977,13941 10872,14047 10845,14020 Z M 11977,13915 L 12082,14020 12056,14047 11950,13941 Z M 10398,13994 L 10424,14020 10398,14047 10372,14020 Z M 12529,13994 L 12555,14020 12529,14047 12503,14020 Z M 10372,14047 L 10398,14073 10372,14126 10346,14152 10319,14126 10319,14099 Z M 12555,14047 L 12608,14099 12608,14126 12582,14152 12555,14126 12529,14073 Z M 10793,14126 L 10819,14152 10766,14205 10740,14178 Z M 12135,14126 L 12187,14178 12161,14205 12108,14152 Z M 10319,14205 L 10346,14231 10319,14257 10293,14231 Z M 10740,14205 L 10766,14231 10766,14257 10740,14283 10714,14257 10714,14231 Z M 12187,14205 L 12213,14231 12213,14257 12187,14283 12161,14257 12161,14231 Z M 12608,14205 L 12634,14231 12608,14257 12582,14231 Z M 10293,14257 L 10319,14283 10319,14310 10293,14336 10267,14310 10267,14283 Z M 12634,14257 L 12661,14283 12661,14310 12634,14336 12608,14310 12608,14283 Z M 10714,14283 L 10740,14310 10740,14336 10714,14362 10688,14336 10688,14310 Z M 12213,14283 L 12240,14310 12240,14336 12213,14362 12187,14336 12187,14310 Z M 10688,14362 L 10714,14389 10714,14468 10688,14494 10661,14468 10661,14389 Z M 12240,14362 L 12266,14389 12266,14468 12240,14494 12213,14468 12213,14389 Z M 10688,14573 L 10714,14599 10714,14678 10688,14704 10661,14678 10661,14599 Z M 12240,14573 L 12266,14599 12266,14678 12240,14704 12213,14678 12213,14599 Z M 10714,14704 L 10740,14731 10740,14757 10714,14783 10688,14757 10688,14731 Z M 12213,14704 L 12240,14731 12240,14757 12213,14783 12187,14757 12187,14731 Z M 10293,14731 L 10319,14757 10319,14783 10293,14810 10267,14783 10267,14757 Z M 12634,14731 L 12661,14757 12661,14783 12634,14810 12608,14783 12608,14757 Z M 10740,14783 L 10766,14810 10766,14836 10740,14862 10714,14836 10714,14810 Z M 12187,14783 L 12213,14810 12213,14836 12187,14862 12161,14836 12161,14810 Z M 10319,14810 L 10346,14836 10319,14862 10293,14836 Z M 12608,14810 L 12634,14836 12608,14862 12582,14836 Z M 10766,14862 L 10819,14915 10793,14941 10740,14889 Z M 12161,14862 L 12187,14889 12135,14941 12108,14915 Z M 10346,14915 L 10372,14941 10398,14994 10372,15020 10319,14967 10319,14941 Z M 12582,14915 L 12608,14941 12582,14967 12555,14941 Z M 12555,14967 L 12582,14994 12555,15020 12529,14994 Z M 10398,15020 L 10424,15046 10398,15073 10372,15046 Z M 10872,15020 L 10977,15125 10951,15152 10845,15046 Z M 12056,15020 L 12082,15046 11977,15152 11950,15125 Z M 12529,15020 L 12555,15046 12529,15073 12503,15046 Z M 10424,15099 L 10477,15152 10451,15178 10398,15125 Z M 12503,15099 L 12529,15125 12477,15178 12450,15152 Z M 10477,15178 L 10556,15257 10530,15283 10451,15204 Z M 11082,15178 L 11135,15231 11108,15257 11056,15204 Z M 11845,15178 L 11871,15204 11819,15257 11792,15231 Z M 12450,15178 L 12477,15204 12398,15283 12371,15257 Z M 11161,15231 L 11187,15231 11214,15257 11187,15283 11161,15283 11135,15257 Z M 11740,15231 L 11766,15231 11792,15257 11766,15283 11740,15283 11714,15257 Z M 11240,15257 L 11266,15257 11293,15283 11266,15310 11240,15310 11214,15283 Z M 11661,15257 L 11687,15257 11714,15283 11687,15310 11661,15310 11635,15283 Z M 10556,15283 L 10582,15310 10556,15336 10530,15310 Z M 11319,15283 L 11398,15283 11424,15310 11398,15336 11319,15336 11293,15310 Z M 11529,15283 L 11608,15283 11635,15310 11608,15336 11529,15336 11503,15310 Z M 12371,15283 L 12398,15310 12371,15336 12345,15310 Z M 9293,15336 L 9320,15362 9320,15625 9293,15652 9267,15625 9267,15362 Z M 10609,15336 L 10661,15388 10635,15415 10582,15362 Z M 12319,15336 L 12345,15362 12292,15415 12266,15388 Z M 13634,15336 L 13660,15362 13660,15625 13634,15652 13608,15625 13608,15362 Z M 10688,15415 L 10714,15441 10688,15467 10661,15441 Z M 12240,15415 L 12266,15441 12240,15467 12213,15441 Z M 10740,15441 L 10819,15520 10793,15546 10714,15467 Z M 12187,15441 L 12213,15467 12135,15546 12108,15520 Z M 10845,15520 L 10898,15573 10872,15599 10819,15546 Z M 12082,15520 L 12108,15546 12056,15599 12029,15573 Z M 9714,15573 L 9740,15599 9740,15625 9714,15652 9688,15625 9688,15599 Z M 10951,15573 L 10977,15599 10951,15625 10924,15599 Z M 11977,15573 L 12003,15599 11977,15625 11950,15599 Z M 13213,15573 L 13239,15599 13239,15625 13213,15652 13187,15625 13187,15599 Z M 11003,15599 L 11056,15625 11082,15652 11056,15678 11030,15678 10977,15625 Z M 11924,15599 L 11950,15625 11924,15652 11898,15625 Z M 11871,15625 L 11898,15652 11871,15678 11845,15652 Z M 9740,15652 L 9767,15678 9740,15704 9714,15678 Z M 11161,15652 L 11187,15678 11161,15704 11135,15678 Z M 11766,15652 L 11792,15678 11766,15704 11740,15678 Z M 13187,15652 L 13213,15678 13187,15704 13161,15678 Z M 9320,15678 L 9346,15704 9346,15730 9320,15757 9293,15730 9293,15704 Z M 11214,15678 L 11240,15678 11266,15704 11240,15730 11214,15730 11187,15704 Z M 11687,15678 L 11714,15678 11740,15704 11714,15730 11687,15730 11661,15704 Z M 13608,15678 L 13634,15704 13634,15730 13608,15757 13581,15730 13581,15704 Z M 9346,15757 L 9372,15783 9372,15809 9346,15836 9320,15809 9320,15783 Z M 9767,15757 L 9793,15783 9767,15809 9740,15783 Z M 13161,15757 L 13187,15783 13161,15809 13134,15783 Z M 13581,15757 L 13608,15783 13608,15809 13581,15836 13555,15809 13555,15783 Z M 9819,15836 L 9846,15862 9819,15888 9793,15862 Z M 13108,15836 L 13134,15862 13108,15888 13082,15862 Z M 9372,15862 L 9398,15888 9372,15915 9346,15888 Z M 13555,15862 L 13581,15888 13555,15915 13529,15888 Z M 9846,15888 L 9898,15941 9872,15967 9819,15915 Z M 13082,15888 L 13108,15915 13055,15967 13029,15941 Z M 9398,15915 L 9425,15941 9398,15967 9372,15941 Z M 13529,15915 L 13555,15941 13529,15967 13503,15941 Z M 9425,15967 L 9451,15994 9477,16046 9451,16072 9398,16020 9398,15994 Z M 9898,15967 L 10030,16099 10004,16125 9872,15994 Z M 13029,15967 L 13055,15994 12924,16125 12897,16099 Z M 13503,15967 L 13529,15994 13529,16020 13476,16099 13450,16125 13424,16099 13424,16072 13476,15994 Z M 9477,16072 L 9504,16099 9477,16125 9451,16099 Z M 10056,16099 L 10109,16151 10082,16178 10030,16125 Z M 12871,16099 L 12897,16125 12845,16178 12819,16151 Z M 9504,16125 L 9583,16204 9556,16230 9477,16151 Z M 13424,16125 L 13450,16151 13371,16230 13345,16204 Z M 10135,16151 L 10161,16178 10135,16204 10109,16178 Z M 12792,16151 L 12819,16178 12792,16204 12766,16178 Z M 10214,16204 L 10240,16230 10214,16257 10188,16230 Z M 12713,16204 L 12740,16230 12713,16257 12687,16230 Z M 10319,16230 L 10346,16257 10319,16283 10293,16257 Z M 12608,16230 L 12634,16257 12608,16283 12582,16257 Z M 10372,16257 L 10398,16257 10424,16283 10398,16309 10372,16309 10346,16283 Z M 12529,16257 L 12555,16257 12582,16283 12555,16309 12529,16309 12503,16283 Z M 9635,16283 L 9662,16309 9635,16336 9609,16309 Z M 13292,16283 L 13318,16309 13292,16336 13266,16309 Z M 9688,16336 L 9714,16362 9688,16388 9662,16362 Z M 13239,16336 L 13266,16362 13239,16388 13213,16362 Z M 9793,16414 L 9872,16493 9846,16520 9767,16441 Z M 13134,16414 L 13161,16441 13082,16520 13055,16493 Z M 9898,16493 L 9925,16493 10004,16546 10030,16572 10004,16599 9977,16599 9898,16546 9872,16520 Z M 13003,16493 L 13029,16493 13055,16520 13029,16546 12950,16599 12924,16599 12897,16572 12924,16546 Z M 10056,16572 L 10082,16599 10056,16625 10030,16599 Z M 12871,16572 L 12897,16599 12871,16625 12845,16599 Z M 10109,16599 L 10135,16625 10109,16651 10082,16625 Z M 12819,16599 L 12845,16625 12819,16651 12792,16625 Z M 10188,16625 L 10214,16625 10240,16651 10214,16678 10188,16678 10161,16651 Z M 12713,16625 L 12740,16625 12766,16651 12740,16678 12713,16678 12687,16651 Z M 10267,16651 L 10293,16651 10319,16678 10293,16704 10267,16704 10240,16678 Z M 12634,16651 L 12661,16651 12687,16678 12661,16704 12634,16704 12608,16678 Z M 10372,16678 L 10556,16678 10582,16704 10556,16730 10372,16730 10346,16704 Z M 12371,16678 L 12555,16678 12582,16704 12555,16730 12371,16730 12345,16704 Z"/>
         <path fill="rgb(251,237,241)" stroke="rgb(251,237,241)" d="M 10582,12337 L 12345,12337 12608,12363 12819,12442 13161,12626 13371,12837 13450,12942 13634,13389 13660,13731 13660,15336 13634,15678 13581,15862 13450,16125 13371,16230 13161,16441 13055,16520 12792,16651 12608,16704 12345,16730 10582,16730 10319,16704 10004,16572 9767,16441 9556,16230 9477,16125 9346,15862 9293,15678 9267,15336 9267,13731 9293,13389 9372,13179 9556,12837 9767,12626 9872,12547 10319,12363 Z M 10372,12784 L 12555,12784 12582,12810 12766,12889 12792,12889 12845,12915 12924,12968 13029,13073 13082,13152 13108,13205 13161,13363 13187,13415 13213,13442 13213,15625 13161,15783 13108,15836 13029,15967 13029,15994 12924,16099 12845,16151 12819,16151 12766,16178 12713,16230 12555,16283 10372,16283 10346,16257 10161,16178 10135,16178 10082,16151 10004,16099 9898,15994 9846,15915 9819,15862 9819,15836 9740,15652 9714,15625 9714,13442 9898,13073 10004,12968 Z M 12608,13179 L 12661,13179 12740,13205 12792,13257 12819,13336 12819,13389 12792,13468 12713,13547 12555,13547 12450,13442 12450,13284 12529,13205 Z M 11266,13336 L 11661,13336 12108,13521 12213,13599 12398,13784 12477,13889 12608,14152 12661,14336 12661,14731 12529,15099 12398,15283 12213,15467 12029,15599 11845,15678 11661,15730 11266,15730 10819,15546 10714,15467 10530,15283 10451,15178 10319,14915 10267,14731 10267,14336 10398,13968 10530,13784 10714,13599 10898,13468 11082,13389 Z M 11319,13757 L 11608,13757 11792,13836 11977,13941 12056,14020 12161,14178 12187,14231 12240,14389 12240,14678 12161,14862 12056,15046 11977,15125 11819,15231 11766,15257 11608,15310 11319,15310 11135,15231 10951,15125 10872,15046 10766,14889 10740,14836 10688,14678 10688,14389 10766,14205 10872,14020 10951,13941 11108,13836 11161,13810 Z"/>
        </g>
       </g>
      </g>
     </g>
    </g>
   </g>
  </g>
 </g>
</svg>